<svg height="512pt" viewBox="0 -36 512 512" width="512pt" xmlns="http://www.w3.org/2000/svg">
<path d="m502 100h-141.382812c3.417968-5.886719 5.382812-12.71875 5.382812-20 0-14.914062-8.210938-27.941406-20.34375-34.816406.21875-1.78125.34375-3.523438.34375-5.183594 0-22.054688-17.945312-40-40-40-21.679688 0-39.742188 19.910156-48.859375 32.257812-14.453125-20.808593-32.578125-32.257812-51.140625-32.257812-22.054688 0-40 17.945312-40 40 0 1.664062.117188 3.402344.339844 5.1875-12.128906 6.875-20.339844 19.898438-20.339844 34.8125 0 7.28125 1.964844 14.113281 5.382812 20h-141.382812c-5.523438 0-10 4.476562-10 10v60c0 5.523438 4.476562 10 10 10h21v30c0 3.699219 2.015625 6.921875 5 8.652344v211.347656c0 5.523438 4.476562 10 10 10h420c5.523438 0 10-4.476562 10-10v-211.347656c2.984375-1.730469 5-4.953125 5-8.652344v-30h21c5.523438 0 10-4.476562 10-10v-60c0-5.523438-4.476562-10-10-10zm-156-20c0 11.027344-8.972656 20-20 20h-35.382812c3.417968-5.886719 5.382812-12.71875 5.382812-20 0-1.101562-.058594-2.1875-.144531-3.265625.167969-.144531.328125-.292969.496093-.441406 12.773438-11.113281 25.242188-16.292969 29.648438-16.292969 11.027344 0 20 8.972656 20 20zm-40-60c11.027344 0 20 8.972656 20 20-11.589844 0-26.355469 8.316406-37.421875 16.832031-3.898437-5.464843-9.125-9.917969-15.214844-12.863281 11.125-15.015625 23.28125-23.96875 32.636719-23.96875zm-30 60c0 11.027344-8.972656 20-20 20s-20-8.972656-20-20 8.972656-20 20-20 20 8.972656 20 20zm-70-60c13.617188 0 25.554688 10.660156 34.347656 23.214844-6.816406 2.910156-12.667968 7.652344-16.921875 13.617187-11.070312-8.515625-25.835937-16.832031-37.425781-16.832031 0-11.027344 8.972656-20 20-20zm-20 40c4.40625 0 16.875 5.179688 29.648438 16.292969.167968.148437.328124.296875.496093.441406-.085937 1.078125-.144531 2.164063-.144531 3.265625 0 7.28125 1.964844 14.113281 5.382812 20h-35.382812c-11.027344 0-20-8.972656-20-20s8.972656-20 20-20zm-166 100v-40h186v40zm206 260h-170v-200h170zm0-220h-175v-20h175zm40 220h-20v-240h20zm-40-260v-40h60v40zm230 260h-170v-200h170zm5-220h-175v-20h175zm31-40h-186v-40h186zm0 0"/>
<path d="m186 400c5.511719 0 10-4.488281 10-10s-4.488281-10-10-10-10 4.488281-10 10 4.488281 10 10 10zm0 0"/>
<path d="m86 400h60c5.511719 0 10-4.488281 10-10s-4.488281-10-10-10h-50v-30c0-5.511719-4.488281-10-10-10s-10 4.488281-10 10v40c0 2.628906 1.070312 5.210938 2.929688 7.070312 1.859374 1.859376 4.441406 2.929688 7.070312 2.929688zm0 0"/></svg>