<?xml version="1.0" encoding="iso-8859-1"?>
<!-- Generator: Adobe Illustrator 19.0.0, SVG Export Plug-In . SVG Version: 6.00 Build 0)  -->
<svg version="1.1" id="Layer_1" xmlns="http://www.w3.org/2000/svg" xmlns:xlink="http://www.w3.org/1999/xlink" x="0px" y="0px"
	 viewBox="0 0 512 512" style="enable-background:new 0 0 512 512;" xml:space="preserve">
<g>
	<g>
		<path d="M378.64,134.248c-6.256-6.256-16.368-6.256-22.624,0L135.2,355.048c-6.256,6.256-6.256,16.368,0,22.624
			c3.12,3.12,7.216,4.688,11.312,4.688s8.192-1.552,11.312-4.688l220.816-220.8C384.896,150.616,384.896,140.504,378.64,134.248z"/>
	</g>
</g>
<g>
	<g>
		<path d="M176.864,112.744c-34.928,0-63.344,28.416-63.344,63.36c0,34.928,28.416,63.344,63.344,63.344s63.36-28.432,63.36-63.344
			C240.224,141.16,211.808,112.744,176.864,112.744z M176.864,207.448c-17.28,0-31.344-14.064-31.344-31.344
			c0-17.296,14.064-31.36,31.344-31.36c17.296,0,31.36,14.064,31.36,31.36C208.224,193.384,194.16,207.448,176.864,207.448z"/>
	</g>
</g>
<g>
	<g>
		<path d="M486.72,304.328c11.84-13.312,25.28-28.416,25.28-48.32S498.56,221,486.704,207.672
			c-6.704-7.536-13.632-15.312-15.664-21.552c-2.208-6.816-1.184-17.568-0.192-27.968c1.664-17.424,3.552-37.152-7.744-52.656
			c-11.376-15.632-30.832-19.936-47.984-23.728c-10.128-2.24-20.592-4.544-26.256-8.672C383.36,69.08,378,59.944,372.832,51.112
			c-8.944-15.28-19.088-32.592-37.728-38.656c-4.16-1.36-8.624-2.032-13.264-2.032c-13.408,0-26.208,5.552-38.592,10.928
			c-9.728,4.224-19.808,8.592-27.248,8.592s-17.52-4.368-27.248-8.592c-12.384-5.376-25.184-10.928-38.592-10.928
			c-4.64,0-9.104,0.672-13.28,2.032c-18.64,6.064-28.768,23.392-37.744,38.672c-5.168,8.848-10.512,17.968-16,21.968
			c-5.648,4.096-16.112,6.416-26.224,8.656c-17.184,3.808-36.64,8.112-48.016,23.744C37.6,121,39.488,140.744,41.152,158.168
			c0.992,10.4,2.016,21.152-0.192,27.968c-2.032,6.224-8.96,14.016-15.664,21.536C13.44,221,0,236.104,0,256.008
			C0,275.896,13.424,291,25.264,304.296c6.704,7.536,13.632,15.328,15.664,21.616c2.224,6.816,1.216,17.568,0.224,27.968
			c-1.664,17.408-3.536,37.152,7.744,52.64c11.376,15.648,30.848,19.952,48.032,23.744c10.112,2.224,20.56,4.528,26.192,8.624
			c5.504,4,10.848,13.136,16.032,21.984c8.928,15.28,19.088,32.608,37.728,38.672c4.16,1.344,8.624,2.032,13.248,2.032
			c13.408,0,26.224-5.552,38.592-10.912c9.744-4.224,19.824-8.592,27.28-8.592c7.44,0,17.52,4.352,27.264,8.592
			c12.368,5.36,25.184,10.912,38.576,10.912c4.64,0,9.104-0.688,13.28-2.032c18.64-6.048,28.768-23.36,37.712-38.64
			c5.184-8.848,10.528-17.984,16.064-21.984c5.648-4.128,16.112-6.432,26.224-8.672c17.152-3.776,36.608-8.064,48-23.712
			c11.296-15.52,9.408-35.264,7.744-52.688c-0.992-10.4-2.016-21.152,0.192-27.952C473.072,319.64,480,311.848,486.72,304.328z
			 M462.816,283.032c-8.912,9.984-18.112,20.336-22.208,32.976c-4.256,13.12-2.912,27.216-1.616,40.864
			c1.184,12.352,2.4,25.12-1.76,30.816c-4.24,5.84-16.832,8.624-29.024,11.328c-13.328,2.944-27.12,5.984-38.128,14.016
			c-10.944,7.936-18.016,20.016-24.864,31.696c-6.352,10.848-12.944,22.064-19.984,24.368c-6.112,1.936-18.064-2.944-29.248-7.792
			c-12.736-5.536-25.904-11.232-39.984-11.232c-14.096,0-27.264,5.696-40,11.216c-11.184,4.832-23.2,9.728-29.248,7.792
			c-7.04-2.272-13.648-13.52-20-24.4c-6.832-11.664-13.904-23.744-24.816-31.68c-11.04-8.032-24.816-11.056-38.128-14
			c-12.176-2.688-24.784-5.472-29.04-11.328c-4.144-5.712-2.928-18.448-1.776-30.784c1.296-13.664,2.64-27.792-1.632-40.88
			c-4.08-12.656-13.28-22.992-22.192-32.992C40.736,273.544,32,263.72,32,256.008s8.752-17.552,17.2-27.024
			c8.896-10,18.096-20.336,22.192-32.96c4.256-13.136,2.912-27.232,1.616-40.88c-1.184-12.352-2.4-25.104,1.76-30.816
			c4.24-5.84,16.864-8.64,29.056-11.328c13.312-2.944,27.088-5.984,38.128-14.016c10.896-7.952,17.952-20,24.8-31.664
			c6.352-10.864,12.96-22.112,20.016-24.416c6.144-2.048,18.064,2.944,29.248,7.808c12.736,5.52,25.904,11.232,39.984,11.232
			c14.08,0,27.248-5.712,39.984-11.232c11.184-4.848,23.2-9.84,29.232-7.808c7.056,2.288,13.648,13.52,20.016,24.384
			c6.832,11.664,13.904,23.744,24.816,31.68c11.056,8.048,24.848,11.088,38.176,14.048c12.16,2.688,24.768,5.472,29.008,11.312
			c4.144,5.712,2.928,18.464,1.76,30.8c-1.296,13.648-2.64,27.76,1.616,40.88c4.096,12.624,13.296,22.96,22.192,32.96
			c8.448,9.488,17.2,19.328,17.2,27.04C480,263.72,471.264,273.544,462.816,283.032z"/>
	</g>
</g>
<g>
	<g>
		<path d="M336.832,272.696c-34.928,0-63.328,28.416-63.328,63.36s28.4,63.36,63.328,63.36c34.912,0,63.344-28.416,63.344-63.36
			S371.76,272.696,336.832,272.696z M336.832,367.416c-17.28,0-31.328-14.064-31.328-31.36s14.048-31.36,31.328-31.36
			c17.28,0,31.344,14.064,31.344,31.36C368.176,353.352,354.112,367.416,336.832,367.416z"/>
	</g>
</g>
<g>
</g>
<g>
</g>
<g>
</g>
<g>
</g>
<g>
</g>
<g>
</g>
<g>
</g>
<g>
</g>
<g>
</g>
<g>
</g>
<g>
</g>
<g>
</g>
<g>
</g>
<g>
</g>
<g>
</g>
</svg>
